<mxfile host="Electron" agent="Mozilla/5.0 (Windows NT 10.0; Win64; x64) AppleWebKit/537.36 (KHTML, like Gecko) draw.io/24.7.8 Chrome/128.0.6613.36 Electron/32.0.1 Safari/537.36" version="24.7.8">
  <diagram name="Seite-1" id="CSCMTvoyx8GfkIWIgrj5">
    <mxGraphModel dx="2914" dy="1176" grid="1" gridSize="10" guides="1" tooltips="1" connect="1" arrows="1" fold="1" page="1" pageScale="1" pageWidth="827" pageHeight="1169" math="0" shadow="0">
      <root>
        <mxCell id="0" />
        <mxCell id="1" parent="0" />
        <mxCell id="8jlTEtXbO0kP9G_WUDS2-10" style="edgeStyle=orthogonalEdgeStyle;rounded=0;orthogonalLoop=1;jettySize=auto;html=1;exitX=0.5;exitY=1;exitDx=0;exitDy=0;entryX=0.5;entryY=0;entryDx=0;entryDy=0;" parent="1" source="8jlTEtXbO0kP9G_WUDS2-2" target="8jlTEtXbO0kP9G_WUDS2-8" edge="1">
          <mxGeometry relative="1" as="geometry" />
        </mxCell>
        <mxCell id="8jlTEtXbO0kP9G_WUDS2-15" style="edgeStyle=orthogonalEdgeStyle;rounded=0;orthogonalLoop=1;jettySize=auto;html=1;exitX=0;exitY=0.5;exitDx=0;exitDy=0;entryX=0.5;entryY=1;entryDx=0;entryDy=0;" parent="1" source="8jlTEtXbO0kP9G_WUDS2-2" target="8jlTEtXbO0kP9G_WUDS2-12" edge="1">
          <mxGeometry relative="1" as="geometry" />
        </mxCell>
        <mxCell id="8jlTEtXbO0kP9G_WUDS2-2" value="" style="rhombus;whiteSpace=wrap;html=1;" parent="1" vertex="1">
          <mxGeometry x="70" y="320" width="80" height="40" as="geometry" />
        </mxCell>
        <mxCell id="8jlTEtXbO0kP9G_WUDS2-6" value="addPlayer(id)" style="text;html=1;align=center;verticalAlign=middle;resizable=0;points=[];autosize=1;strokeColor=none;fillColor=none;" parent="1" vertex="1">
          <mxGeometry x="130" y="290" width="90" height="30" as="geometry" />
        </mxCell>
        <mxCell id="8jlTEtXbO0kP9G_WUDS2-7" value="[otherwise]" style="text;html=1;align=center;verticalAlign=middle;resizable=0;points=[];autosize=1;strokeColor=none;fillColor=none;" parent="1" vertex="1">
          <mxGeometry x="-10" y="358" width="80" height="30" as="geometry" />
        </mxCell>
        <mxCell id="8jlTEtXbO0kP9G_WUDS2-17" style="edgeStyle=orthogonalEdgeStyle;rounded=0;orthogonalLoop=1;jettySize=auto;html=1;exitX=1;exitY=0.5;exitDx=0;exitDy=0;entryX=0.5;entryY=0;entryDx=0;entryDy=0;" parent="1" source="8jlTEtXbO0kP9G_WUDS2-8" target="8jlTEtXbO0kP9G_WUDS2-16" edge="1">
          <mxGeometry relative="1" as="geometry" />
        </mxCell>
        <mxCell id="8jlTEtXbO0kP9G_WUDS2-18" style="edgeStyle=orthogonalEdgeStyle;rounded=0;orthogonalLoop=1;jettySize=auto;html=1;exitX=0.5;exitY=1;exitDx=0;exitDy=0;entryX=0;entryY=0.5;entryDx=0;entryDy=0;" parent="1" source="8jlTEtXbO0kP9G_WUDS2-8" target="8jlTEtXbO0kP9G_WUDS2-16" edge="1">
          <mxGeometry relative="1" as="geometry" />
        </mxCell>
        <mxCell id="8jlTEtXbO0kP9G_WUDS2-8" value="Set up" style="rounded=1;whiteSpace=wrap;html=1;" parent="1" vertex="1">
          <mxGeometry x="72.5" y="450" width="75" height="20" as="geometry" />
        </mxCell>
        <mxCell id="8jlTEtXbO0kP9G_WUDS2-11" value="[players.size()=2]/send GameDetail messages" style="text;html=1;align=center;verticalAlign=middle;resizable=0;points=[];autosize=1;strokeColor=none;fillColor=none;" parent="1" vertex="1">
          <mxGeometry x="125" y="360" width="270" height="30" as="geometry" />
        </mxCell>
        <mxCell id="8jlTEtXbO0kP9G_WUDS2-14" style="edgeStyle=orthogonalEdgeStyle;rounded=0;orthogonalLoop=1;jettySize=auto;html=1;exitX=1;exitY=0.5;exitDx=0;exitDy=0;entryX=0.5;entryY=0;entryDx=0;entryDy=0;" parent="1" source="8jlTEtXbO0kP9G_WUDS2-12" target="8jlTEtXbO0kP9G_WUDS2-2" edge="1">
          <mxGeometry relative="1" as="geometry" />
        </mxCell>
        <mxCell id="8jlTEtXbO0kP9G_WUDS2-12" value="" style="ellipse;fillColor=strokeColor;html=1;" parent="1" vertex="1">
          <mxGeometry x="15" y="260" width="30" height="30" as="geometry" />
        </mxCell>
        <mxCell id="8jlTEtXbO0kP9G_WUDS2-22" style="edgeStyle=orthogonalEdgeStyle;rounded=0;orthogonalLoop=1;jettySize=auto;html=1;exitX=0.5;exitY=1;exitDx=0;exitDy=0;entryX=0.5;entryY=0;entryDx=0;entryDy=0;" parent="1" source="8jlTEtXbO0kP9G_WUDS2-16" target="8jlTEtXbO0kP9G_WUDS2-21" edge="1">
          <mxGeometry relative="1" as="geometry" />
        </mxCell>
        <mxCell id="8jlTEtXbO0kP9G_WUDS2-16" value="&lt;span style=&quot;color: rgba(0, 0, 0, 0); font-family: monospace; font-size: 0px; text-align: start; text-wrap: nowrap;&quot;&gt;%3CmxGraphModel%3E%3Croot%3E%3CmxCell%20id%3D%220%22%2F%3E%3CmxCell%20id%3D%221%22%20parent%3D%220%22%2F%3E%3CmxCell%20id%3D%222%22%20value%3D%22%22%20style%3D%22rhombus%3BwhiteSpace%3Dwrap%3Bhtml%3D1%3B%22%20vertex%3D%221%22%20parent%3D%221%22%3E%3CmxGeometry%20x%3D%22170%22%20y%3D%22530%22%20width%3D%2280%22%20height%3D%2240%22%20as%3D%22geometry%22%2F%3E%3C%2FmxCell%3E%3C%2Froot%3E%3C%2FmxGraphModel%3E&lt;/span&gt;" style="rhombus;whiteSpace=wrap;html=1;" parent="1" vertex="1">
          <mxGeometry x="170" y="520" width="80" height="40" as="geometry" />
        </mxCell>
        <mxCell id="8jlTEtXbO0kP9G_WUDS2-19" value="received MapMessage&lt;div&gt;&lt;br&gt;&lt;/div&gt;" style="text;html=1;align=center;verticalAlign=middle;resizable=0;points=[];autosize=1;strokeColor=none;fillColor=none;" parent="1" vertex="1">
          <mxGeometry x="220" y="470" width="140" height="40" as="geometry" />
        </mxCell>
        <mxCell id="8jlTEtXbO0kP9G_WUDS2-20" value="[otherwise]" style="text;html=1;align=center;verticalAlign=middle;resizable=0;points=[];autosize=1;strokeColor=none;fillColor=none;" parent="1" vertex="1">
          <mxGeometry x="50" y="588" width="80" height="30" as="geometry" />
        </mxCell>
        <mxCell id="8jlTEtXbO0kP9G_WUDS2-26" style="edgeStyle=orthogonalEdgeStyle;rounded=0;orthogonalLoop=1;jettySize=auto;html=1;exitX=1;exitY=0.5;exitDx=0;exitDy=0;entryX=0.5;entryY=0;entryDx=0;entryDy=0;strokeColor=#FF0000;" parent="1" source="8jlTEtXbO0kP9G_WUDS2-21" target="8jlTEtXbO0kP9G_WUDS2-24" edge="1">
          <mxGeometry relative="1" as="geometry" />
        </mxCell>
        <mxCell id="8jlTEtXbO0kP9G_WUDS2-21" value="Battle" style="rounded=1;whiteSpace=wrap;html=1;" parent="1" vertex="1">
          <mxGeometry x="172.5" y="640" width="75" height="20" as="geometry" />
        </mxCell>
        <mxCell id="8jlTEtXbO0kP9G_WUDS2-23" value="[readyPlayers.size() = 2]" style="text;html=1;align=center;verticalAlign=middle;resizable=0;points=[];autosize=1;strokeColor=none;fillColor=none;" parent="1" vertex="1">
          <mxGeometry x="220" y="585" width="150" height="30" as="geometry" />
        </mxCell>
        <mxCell id="8jlTEtXbO0kP9G_WUDS2-28" style="edgeStyle=orthogonalEdgeStyle;rounded=0;orthogonalLoop=1;jettySize=auto;html=1;exitX=0.5;exitY=1;exitDx=0;exitDy=0;" parent="1" source="8jlTEtXbO0kP9G_WUDS2-24" edge="1">
          <mxGeometry relative="1" as="geometry">
            <mxPoint x="342.3548387096773" y="830" as="targetPoint" />
          </mxGeometry>
        </mxCell>
        <mxCell id="8jlTEtXbO0kP9G_WUDS2-24" value="Animation wait" style="rounded=1;whiteSpace=wrap;html=1;strokeColor=#FF0000;" parent="1" vertex="1">
          <mxGeometry x="285" y="680" width="115" height="20" as="geometry" />
        </mxCell>
        <mxCell id="8jlTEtXbO0kP9G_WUDS2-30" style="edgeStyle=orthogonalEdgeStyle;rounded=0;orthogonalLoop=1;jettySize=auto;html=1;exitX=0;exitY=0.5;exitDx=0;exitDy=0;entryX=0.5;entryY=1;entryDx=0;entryDy=0;" parent="1" source="8jlTEtXbO0kP9G_WUDS2-29" target="8jlTEtXbO0kP9G_WUDS2-21" edge="1">
          <mxGeometry relative="1" as="geometry" />
        </mxCell>
        <mxCell id="8jlTEtXbO0kP9G_WUDS2-32" style="edgeStyle=orthogonalEdgeStyle;rounded=0;orthogonalLoop=1;jettySize=auto;html=1;exitX=0.5;exitY=1;exitDx=0;exitDy=0;" parent="1" source="8jlTEtXbO0kP9G_WUDS2-29" target="8jlTEtXbO0kP9G_WUDS2-31" edge="1">
          <mxGeometry relative="1" as="geometry" />
        </mxCell>
        <mxCell id="8jlTEtXbO0kP9G_WUDS2-29" value="&lt;span style=&quot;color: rgba(0, 0, 0, 0); font-family: monospace; font-size: 0px; text-align: start; text-wrap: nowrap;&quot;&gt;%3CmxGraphModel%3E%3Croot%3E%3CmxCell%20id%3D%220%22%2F%3E%3CmxCell%20id%3D%221%22%20parent%3D%220%22%2F%3E%3CmxCell%20id%3D%222%22%20value%3D%22%22%20style%3D%22rhombus%3BwhiteSpace%3Dwrap%3Bhtml%3D1%3B%22%20vertex%3D%221%22%20parent%3D%221%22%3E%3CmxGeometry%20x%3D%22170%22%20y%3D%22530%22%20width%3D%2280%22%20height%3D%2240%22%20as%3D%22geometry%22%2F%3E%3C%2FmxCell%3E%3C%2Froot%3E%3C%2FmxGraphModel%3E&lt;/span&gt;" style="rhombus;whiteSpace=wrap;html=1;" parent="1" vertex="1">
          <mxGeometry x="302.5" y="830" width="80" height="40" as="geometry" />
        </mxCell>
        <mxCell id="8jlTEtXbO0kP9G_WUDS2-31" value="Game over" style="rounded=1;whiteSpace=wrap;html=1;" parent="1" vertex="1">
          <mxGeometry x="285" y="960" width="115" height="20" as="geometry" />
        </mxCell>
        <mxCell id="8jlTEtXbO0kP9G_WUDS2-33" value="[game over]" style="text;html=1;align=center;verticalAlign=middle;resizable=0;points=[];autosize=1;strokeColor=none;fillColor=none;" parent="1" vertex="1">
          <mxGeometry x="345" y="888" width="90" height="30" as="geometry" />
        </mxCell>
        <mxCell id="8jlTEtXbO0kP9G_WUDS2-34" value="[otherwise]" style="text;html=1;align=center;verticalAlign=middle;resizable=0;points=[];autosize=1;strokeColor=none;fillColor=none;" parent="1" vertex="1">
          <mxGeometry x="205" y="860" width="80" height="30" as="geometry" />
        </mxCell>
        <mxCell id="EPEOK_vwsi3Ha1gNdRhl-1" value="sendAnimationStartMessage(pos)" style="text;html=1;align=center;verticalAlign=middle;resizable=0;points=[];autosize=1;strokeColor=#FF0000;fillColor=none;" parent="1" vertex="1">
          <mxGeometry x="350" y="615" width="200" height="30" as="geometry" />
        </mxCell>
        <mxCell id="EPEOK_vwsi3Ha1gNdRhl-2" value="shoot(pos)" style="text;html=1;align=center;verticalAlign=middle;resizable=0;points=[];autosize=1;strokeColor=none;fillColor=none;" parent="1" vertex="1">
          <mxGeometry x="340" y="758" width="80" height="30" as="geometry" />
        </mxCell>
      </root>
    </mxGraphModel>
  </diagram>
</mxfile>
